<svg width="24" height="19" viewBox="0 0 24 19" fill="none"
    xmlns="http://www.w3.org/2000/svg">
    <path d="M7.92 0.12L11.22 3.18C10.5 3.86 9.84 4.54 9.24 5.22C8.68 5.9 8.24 6.58 7.92 7.26C7.6 7.94 7.44 8.6 7.44 9.24C7.44 9.76 7.58 10.2 7.86 10.56C8.14 10.92 8.46 11.26 8.82 11.58C9.18 11.9 9.5 12.28 9.78 12.72C10.06 13.16 10.2 13.72 10.2 14.4C10.2 15.56 9.78 16.56 8.94 17.4C8.14 18.24 7.08 18.66 5.76 18.66C4.48 18.66 3.32 18.14 2.28 17.1C1.28 16.06 0.78 14.74 0.78 13.14C0.78 11.86 1.04 10.54 1.56 9.18C2.12 7.78 2.92 6.32 3.96 4.8C5 3.28 6.32 1.72 7.92 0.12ZM20.22 0.12L23.52 3.18C22.8 3.86 22.14 4.54 21.54 5.22C20.98 5.9 20.54 6.58 20.22 7.26C19.9 7.94 19.74 8.6 19.74 9.24C19.74 9.76 19.88 10.2 20.16 10.56C20.44 10.92 20.76 11.26 21.12 11.58C21.48 11.9 21.8 12.28 22.08 12.72C22.36 13.16 22.5 13.72 22.5 14.4C22.5 15.56 22.08 16.56 21.24 17.4C20.44 18.24 19.38 18.66 18.06 18.66C16.78 18.66 15.62 18.14 14.58 17.1C13.58 16.06 13.08 14.74 13.08 13.14C13.08 11.86 13.34 10.54 13.86 9.18C14.42 7.78 15.22 6.32 16.26 4.8C17.3 3.28 18.62 1.72 20.22 0.12Z" fill="#A7B1B0"/>
</svg>