<svg width="24" height="19" viewBox="0 0 24 19" fill="none"
    xmlns="http://www.w3.org/2000/svg">
    <path d="M16.08 18.88L12.78 15.82C13.5 15.14 14.16 14.46 14.76 13.78C15.32 13.1 15.76 12.42 16.08 11.74C16.4 11.06 16.56 10.4 16.56 9.76C16.56 9.24 16.42 8.8 16.14 8.44C15.86 8.08 15.54 7.74 15.18 7.42C14.82 7.1 14.5 6.72 14.22 6.28C13.94 5.84 13.8 5.28 13.8 4.6C13.8 3.44 14.22 2.44 15.06 1.6C15.86 0.760001 16.92 0.340001 18.24 0.340001C19.52 0.340001 20.68 0.860001 21.72 1.9C22.72 2.94 23.22 4.26 23.22 5.86C23.22 7.14 22.96 8.46 22.44 9.82C21.88 11.22 21.08 12.68 20.04 14.2C19 15.72 17.68 17.28 16.08 18.88ZM3.78 18.88L0.479998 15.82C1.2 15.14 1.86 14.46 2.46 13.78C3.02 13.1 3.46 12.42 3.78 11.74C4.1 11.06 4.26 10.4 4.26 9.76C4.26 9.24 4.12 8.8 3.84 8.44C3.56 8.08 3.24 7.74 2.88 7.42C2.52 7.1 2.2 6.72 1.92 6.28C1.64 5.84 1.5 5.28 1.5 4.6C1.5 3.44 1.92 2.44 2.76 1.6C3.56 0.760001 4.62 0.340001 5.94 0.340001C7.22 0.340001 8.38 0.860001 9.42 1.9C10.42 2.94 10.92 4.26 10.92 5.86C10.92 7.14 10.66 8.46 10.14 9.82C9.58 11.22 8.78 12.68 7.74 14.2C6.7 15.72 5.38 17.28 3.78 18.88Z" fill="#A7B1B0"/>
</svg>